<svg width="787" height="672" viewBox="0 0 787 672" fill="none" xmlns="http://www.w3.org/2000/svg">
<g clip-path="url(#clip0_180_252)">
<path d="M393.503 254.274C357.075 239.45 341.307 217.856 334.855 206.998C302.635 152.906 323.575 66.7734 393.503 0.525421C463.425 66.7734 484.37 152.906 452.15 206.998C445.719 217.856 429.91 239.45 393.503 254.274Z" fill="#2E7D4B"/>
<path d="M367.183 354.227C333.432 368.65 307.245 366.718 293.379 364.268C228.979 352.883 175.784 285.352 163.957 195.268C195.066 209.468 220.988 216.36 238.664 220.017C275.963 227.73 293.501 224.581 318.148 239.795C339.807 253.168 351.154 271.426 355.662 279.626C373.557 312.164 369.08 343.952 367.183 354.227Z" fill="#2E7D4B"/>
<path d="M419.812 354.227C453.562 368.65 479.755 366.718 493.621 364.268C558.016 352.883 611.216 285.352 623.043 195.268C591.934 209.468 566.017 216.36 548.336 220.017C511.037 227.73 493.499 224.581 468.857 239.795C447.193 253.168 435.851 271.426 431.343 279.626C413.448 312.164 417.92 343.952 419.812 354.227Z" fill="#2E7D4B"/>
<path d="M692.404 391.704C655.624 432.343 610.877 465.075 560.912 487.889C556.714 489.806 552.423 491.666 548.041 493.468C499.05 513.663 446.536 524.058 393.503 524.058C340.469 524.058 287.956 513.663 238.965 493.468C228.469 489.157 218.504 484.511 209.09 479.658C165.916 457.427 127.13 427.632 94.5955 391.704C138.999 379.391 225.659 362.721 321.785 394.747C346.722 403.071 370.664 414.093 393.181 427.615C417.172 413.453 442.706 402.053 469.29 393.637C564.156 363.639 648.638 379.675 692.404 391.704Z" fill="#2E7D4B"/>
<path d="M787 530.428C762.633 528.926 738.179 531.12 714.476 536.935C640.382 555.324 623.787 598.558 551.911 634.712C485.854 667.945 423.907 670.075 390.662 671.226C312.809 673.904 254.595 654.998 225.476 645.154C209.044 639.611 146.848 617.682 78.6434 566.932C54.318 548.822 31.5242 528.762 10.4902 506.953C3.28935 499.589 0.127494 495.025 0 492.611L24.9072 504.341C44.1537 513.353 67.5463 523.435 94.626 533.324C115.265 540.86 107.335 539.334 154.293 552.687C186.197 561.754 219.698 571.552 252.917 574.337C255.335 574.539 262.072 575.452 262.837 573.439C264.412 569.311 238.424 559.706 216.296 539.542C204.519 528.726 194.756 515.927 187.457 501.734C209.417 514.301 239.281 528.537 277.677 539.542C278.768 539.856 280.956 540.48 283.618 541.195C298.035 545.095 337.298 554.806 389.351 555.187C441.078 555.567 480.637 546.565 496.701 542.458C521.415 536.164 541.936 528.445 557.98 522.41C573.432 516.598 588.482 509.62 604.138 504.417C626.995 496.81 650.78 494.026 674.795 494.026C678.039 493.955 682.001 493.878 684.321 493.914C719.775 494.457 745.432 505.624 753.806 509.559C765.683 515.147 776.83 522.155 787 530.428Z" fill="#2E7D4B"/>
</g>
<defs>
<clipPath id="clip0_180_252">
<rect width="787" height="670.949" fill="white" transform="translate(0 0.525421)"/>
</clipPath>
</defs>
</svg>
